<?xml version="1.0" encoding="UTF-8"?>
<svg id="a" data-name="Warstwa 1" xmlns="http://www.w3.org/2000/svg" viewBox="0 0 589.69 62.23">
  <defs>
    <style>
      .d {
        fill: #12448f;
      }

      .d, .e, .f, .g, .h {
        stroke-width: 0px;
      }

      .i {
        fill: #161616;
        font-size: 18px;
      }

      .i, .j {
        font-family: OpenSans-Semibold, 'Open Sans';
        font-weight: 600;
      }

      .e {
        fill: #5fabc7;
      }

      .f {
        fill: #6cc2e1;
      }

      .g {
        fill: #222323;
      }

      .j {
        fill: #1d1d1b;
        font-size: 9px;
      }

      .h {
        fill: #73caeb;
      }
    </style>
  </defs>
  <g id="b" data-name="PP Logo blue">
    <path class="d" d="M563.54,0c24.62,11.08,30.27,23.99,23.49,35.16-.31-.58-.72-1.12-1.22-1.63-.91-.92-1.96-1.51-3.14-1.79,6.01-10.22,1.09-21.83-19.13-31.74M576.33,43.02c-.81-.81-1.37-1.71-1.69-2.71-23.02,17.42-81.17,26.44-144.04,5.49,57.39,26.26,121.83,17.45,147.57-1.46-.66-.32-1.27-.76-1.84-1.32ZM450.96,18.38l-2.4,5.92c-3.6-3.08-4.56,6.88-5.9,15.1h-4.68l3.52-21.67h4.36l-.58,3.55c.87-1.99,1.87-4.04,3.61-4.04.69,0,1.38.38,2.07,1.14ZM431.14,28.29h-2.84l-1.8,11.1h-5.21l4.86-29.91c9.13,0,11.17-.62,12.45,2.39,1.52,3.56.21,16.42-7.46,16.42ZM430.37,15.56l-1.08,6.67c1.68,0,3.92.35,4.52-3.3.61-3.77-1.57-3.37-3.43-3.37ZM463.87,28.5c-2.47,15.24-16.45,15.29-13.98.12,2.47-15.21,16.45-15.35,13.98-.12ZM457.83,22.95c-3.25,0-4.97,11.32-1.87,11.32s5.02-11.32,1.87-11.32ZM478.25,24.68c0-2.48-2.03-4.51-4.51-4.51s-4.51,2.02-4.51,4.51,2.03,4.51,4.51,4.51,4.51-2.03,4.51-4.51ZM542.7,26.64h-4.58c.38-1.73,1.28-4.49,3.04-4.49s1.74,2.7,1.54,4.49ZM489.01,22.23c.46-2.81.4-2.47,1.08-6.67,2.23,0,3.47-.21,3.51,2.31,0,4.95-3.44,4.36-4.6,4.36ZM514.1,30.09c.87-8.67,5.05-8.71,5.05-4.09,0-.75.01,4.41-1.59,6.91-1.46,2.3-3.88,1.93-3.45-2.82ZM532.45,17.73h-4.68c-3.46,21.26-3.43,21.66-3.92,22.84h0c-.14.35-.32.68-.64.9h0c-.43.28-.83.15-1.32-.04l-1.68,6.04h0c3.09,1.16,5.4,1.14,7-1.78,1.26-2.26,1.42-4.48,5.24-27.96ZM497.7,39.4h0c2.87,0,1.81,0,4.68,0h0c1.21-7.52,2.21-18.27,5.89-15.1h0s0,0,0,0c2.3-5.66,1.82-4.49,2.4-5.92-2.6-2.85-4.39-.01-5.68,2.88.28-1.73.15-.93.58-3.53h-4.36s-3.51,21.53-3.53,21.66h0ZM481.01,39.4h0c3.2,0,2.01,0,5.21,0h0s0,0,0,0c.33-2.07.02-.15,1.81-11.1,3.43,0,8.87,1.01,10.59-9.63,1.8-11.08-3.49-9.18-12.75-9.18l-4.86,29.91h0ZM514.74,39.89c9.26,0,13.34-22.65,3.67-22.65s-13.04,22.65-3.67,22.65ZM533.79,9.49h0c-1.2,0-.28,0-4.67,0h0s0,0,0,0l-.93,5.71h0c2.87,0,1.8,0,4.67,0l.93-5.71h0ZM541.76,17.23c-8.31,0-11.33,17.17-7.15,21.44,1.72,1.76,5.94,1.57,8.11-.2,1.15-.95,2.24-2.51,3.3-4.69l-4.47-.76c-1.98,3.25-4.61,2.6-4.09-2.4h9.34c1.04-6.39,1.41-13.39-5.03-13.39ZM557.64,17.23c-3.64,0-5.91,2.54-7.4,5.86-2,4.4-3.33,13.84.93,16.17,2.69,1.45,8.34,1.37,11.07-7.44l-4.28-.9c-1.78,5.19-5.62,4.41-4.7-1.71.92-6.99,4.12-6.93,4.94-5.57.36.58.41,1.4.41,2.09h0s4.55-1.04,4.55-1.04c0-4.33-1.23-7.46-5.52-7.46ZM574.86,17.73h-2.56c1.35-8.33,1.34-8.24,1.34-8.24-1.5,1.2-.44.35-5.36,4.26l-.65,3.98h-1.71l-.99,6.06h1.72c-1.67,10.23-4.47,18.81,4.9,15.43.49-4.72.36-3.5.59-5.74-3.27,1.7-2.35-.26-.82-9.69h2.56s0,0,0,0h0l.99-6.06ZM581.05,33.8c-1.22,0-2.27.44-3.14,1.32-.88.88-1.31,1.94-1.31,3.17s.44,2.27,1.32,3.14c.88.88,1.93,1.31,3.13,1.31s2.28-.44,3.16-1.31c.88-.88,1.32-1.92,1.32-3.14s-.44-2.29-1.32-3.17c-.88-.88-1.93-1.32-3.17-1.32Z"/>
    <g>
      <path class="d" d="M586.29.15h-.4c-1.84.1-3.28,1.56-3.28,3.37,0,1.91,1.54,3.42,3.48,3.42s3.46-1.5,3.46-3.42c0-1.81-1.4-3.27-3.26-3.37ZM586.11,6.22c-1.52,0-2.63-1.19-2.63-2.7s1.11-2.7,2.61-2.7,2.59,1.21,2.59,2.72-1.09,2.68-2.57,2.68Z"/>
      <path class="d" d="M587.49,4.45c-.1-.45-.29-.7-.62-.82v-.04c.41-.12.7-.41.7-.78,0-.33-.14-.6-.33-.74-.25-.14-.54-.25-1.17-.25-.56,0-.99.04-1.3.1v3.38h.78v-1.36h.37c.43,0,.64.16.7.54.1.39.16.7.27.82h.84c-.08-.12-.14-.33-.25-.84ZM585.95,3.38h-.37v-.97c.08-.02.23-.04.43-.04.49,0,.72.21.72.51,0,.35-.35.49-.78.49Z"/>
    </g>
  </g>
  <g id="c" data-name="Diagnomatic logo">
    <path class="g" d="M0,50.72V11.77h8.06c6.3,0,11.52,1.66,15.65,4.99,4.13,3.32,6.2,8.08,6.2,14.28s-2.05,11.25-6.15,14.62c-4.1,3.38-9.39,5.06-15.86,5.06H0ZM4.86,16.21v30.06h1.7c2.62,0,4.99-.26,7.13-.77,2.13-.52,4.07-1.35,5.81-2.48s3.1-2.7,4.08-4.7c.98-2,1.47-4.36,1.47-7.08s-.49-5.13-1.47-7.13c-.98-2-2.35-3.56-4.11-4.67s-3.69-1.94-5.81-2.46c-2.12-.52-4.49-.77-7.1-.77h-1.7Z"/>
    <path class="g" d="M39.47,11.77v38.95h-4.86V11.77h4.86Z"/>
    <path class="g" d="M103.11,31.09h15.45v1.55c0,5.41-1.72,9.91-5.16,13.51-3.45,3.6-7.87,5.4-13.28,5.4s-10.04-2.01-13.9-6.02c-3.86-4.01-5.79-8.74-5.79-14.18s1.97-10.42,5.91-14.41c3.94-4,8.7-5.99,14.28-5.99,3.06,0,6,.66,8.81,1.99,2.81,1.33,5.16,3.18,7.05,5.55l-3.41,3.25c-1.41-1.93-3.22-3.47-5.42-4.62-2.2-1.16-4.48-1.73-6.82-1.73-4.34,0-8.02,1.54-11.03,4.62-3.01,3.08-4.52,6.81-4.52,11.18s1.49,7.86,4.47,11.08,6.53,4.83,10.67,4.83c3.1,0,5.97-1.16,8.63-3.46,2.65-2.31,4.03-5.01,4.13-8.11h-10.07v-4.44Z"/>
    <path class="g" d="M167.19,16.91c4.01-3.98,8.81-5.97,14.39-5.97s10.38,1.99,14.39,5.97c4.01,3.98,6.02,8.75,6.02,14.33s-1.98,10.57-5.94,14.47c-3.96,3.89-8.78,5.84-14.47,5.84s-10.5-1.95-14.46-5.84c-3.96-3.89-5.94-8.71-5.94-14.47s2.01-10.35,6.02-14.33ZM170.62,42.43c3.06,3.05,6.72,4.57,10.95,4.57s7.89-1.52,10.95-4.57c3.06-3.05,4.6-6.78,4.6-11.19s-1.47-8.09-4.42-11.16c-2.94-3.06-6.66-4.59-11.13-4.59s-8.19,1.53-11.13,4.59c-2.94,3.06-4.42,6.79-4.42,11.16s1.53,8.14,4.6,11.19Z"/>
    <path class="g" d="M224.97,51.55l-11.67-26.55h-.1l-4.55,25.72h-5.01l7.96-40.6,13.38,30.68,13.38-30.68,7.95,40.6h-5.01l-4.54-25.72h-.1l-11.68,26.55Z"/>
    <path class="g" d="M293.31,16.21v34.51h-4.86V16.21h-9.25v-4.44h23.35v4.44h-9.25Z"/>
    <path class="g" d="M311.08,11.77v38.95h-4.86V11.77h4.86Z"/>
    <path class="g" d="M346.72,13.58v5.63c-2.86-2.55-6.29-3.82-10.28-3.82-4.3,0-7.95,1.56-10.93,4.67-2.98,3.12-4.47,6.86-4.47,11.24s1.47,8.01,4.42,11.13c2.94,3.12,6.57,4.67,10.87,4.67,3.93,0,7.39-1.35,10.38-4.03v5.73c-3.1,1.83-6.51,2.74-10.23,2.74-5.58,0-10.36-1.95-14.34-5.84-3.98-3.89-5.97-8.64-5.97-14.26s2.02-10.61,6.05-14.57c4.03-3.96,8.92-5.94,14.67-5.94,3.68,0,6.96.88,9.82,2.64Z"/>
    <path class="g" d="M122.89,50.72V9.91l29.24,30.63V11.77h4.86v40.55l-29.24-30.63v29.03h-4.86Z"/>
    <polygon class="g" points="61.21 10.12 42.62 50.72 47.83 50.72 48.82 48.55 58.84 26.16 58.84 26.16 61.21 20.76 68.13 36.51 57.33 36.51 55.34 40.96 70.15 40.96 74.59 50.72 79.81 50.72 61.21 10.12"/>
    <polygon class="g" points="265.11 10.12 246.51 50.72 251.73 50.72 255.09 43.32 260.61 30.98 265.11 20.76 272.03 36.51 261.26 36.51 259.27 40.96 274.04 40.96 278.48 50.72 283.7 50.72 265.11 10.12"/>
    <rect class="e" x="178.18" y="20.96" width="6.8" height="6.8"/>
    <rect class="f" x="178.18" y="34.55" width="6.8" height="6.8"/>
    <rect class="h" x="178.18" y="27.76" width="6.8" height="6.8"/>
    <rect class="f" x="184.97" y="27.76" width="6.8" height="6.8"/>
    <rect class="e" x="171.38" y="27.76" width="6.8" height="6.8"/>
  </g>
  <text class="i" transform="translate(375.56 36.86)"><tspan x="0" y="0">by</tspan></text>
  <text class="j" transform="translate(346.72 12.34)"><tspan x="0" y="0">TM</tspan></text>
</svg>